<svg xmlns="http://www.w3.org/2000/svg"><symbol id="facebook" viewBox="0 0 8.2 16" fill-rule="evenodd" clip-rule="evenodd" stroke-linejoin="round" stroke-miterlimit="1.414"><path d="M2.4 16V8.8H0V6h2.4V3.8C2.4 1.3 3.9 0 6.1 0c1 0 1.9.1 2.2.1v2.5H6.7c-1.1.1-1.4.6-1.4 1.4v2H8l-.4 2.8H5.3V16"/></symbol><symbol id="instagram" viewBox="0 0 16 16" fill-rule="evenodd" clip-rule="evenodd" stroke-linejoin="round" stroke-miterlimit="1.414"><path d="M8 0C5.827 0 5.555.01 4.702.048 3.85.088 3.27.222 2.76.42a3.908 3.908 0 0 0-1.417.923c-.445.444-.72.89-.923 1.417-.198.51-.333 1.09-.372 1.942C.008 5.555 0 5.827 0 8s.01 2.445.048 3.298c.04.852.174 1.433.372 1.942.204.526.478.973.923 1.417.444.445.89.72 1.417.923.51.198 1.09.333 1.942.372.853.04 1.125.048 3.298.048s2.445-.01 3.298-.048c.852-.04 1.433-.174 1.942-.372a3.908 3.908 0 0 0 1.417-.923c.445-.444.72-.89.923-1.417.198-.51.333-1.09.372-1.942.04-.853.048-1.125.048-3.298s-.01-2.445-.048-3.298c-.04-.852-.174-1.433-.372-1.942a3.908 3.908 0 0 0-.923-1.417A3.886 3.886 0 0 0 13.24.42c-.51-.198-1.09-.333-1.942-.372C10.445.008 10.173 0 8 0zm0 1.44c2.136 0 2.39.01 3.233.048.78.036 1.203.166 1.485.276.374.145.64.318.92.598.28.28.453.546.598.92.11.282.24.705.276 1.485.038.844.047 1.097.047 3.233s-.01 2.39-.05 3.233c-.04.78-.17 1.203-.28 1.485-.15.374-.32.64-.6.92-.28.28-.55.453-.92.598-.28.11-.71.24-1.49.276-.85.038-1.1.047-3.24.047s-2.39-.01-3.24-.05c-.78-.04-1.21-.17-1.49-.28a2.49 2.49 0 0 1-.92-.6c-.28-.28-.46-.55-.6-.92-.11-.28-.24-.71-.28-1.49-.03-.84-.04-1.1-.04-3.23s.01-2.39.04-3.24c.04-.78.17-1.21.28-1.49.14-.38.32-.64.6-.92.28-.28.54-.46.92-.6.28-.11.7-.24 1.48-.28.85-.03 1.1-.04 3.24-.04zm0 2.452a4.108 4.108 0 1 0 0 8.215 4.108 4.108 0 0 0 0-8.215zm0 6.775a2.667 2.667 0 1 1 0-5.334 2.667 2.667 0 0 1 0 5.334zm5.23-6.937a.96.96 0 1 1-1.92 0 .96.96 0 0 1 1.92 0z"/></symbol><symbol id="youtube" viewBox="0 0 16 16" fill-rule="evenodd" clip-rule="evenodd" stroke-linejoin="round" stroke-miterlimit="1.414"><path d="M0 7.345c0-1.294.16-2.59.16-2.59s.156-1.1.636-1.587c.608-.637 1.408-.617 1.764-.684C3.84 2.36 8 2.324 8 2.324s3.362.004 5.6.166c.314.038.996.04 1.604.678.48.486.636 1.588.636 1.588S16 6.05 16 7.346v1.258c0 1.296-.16 2.59-.16 2.59s-.156 1.102-.636 1.588c-.608.638-1.29.64-1.604.678-2.238.162-5.6.166-5.6.166s-4.16-.037-5.44-.16c-.356-.067-1.156-.047-1.764-.684-.48-.487-.636-1.587-.636-1.587S0 9.9 0 8.605v-1.26zm6.348 2.73V5.58l4.323 2.255-4.32 2.24z"/></symbol><symbol id="line" viewBox="0 0 16 16" fill-rule="evenodd" clip-rule="evenodd" stroke-linejoin="round" stroke-miterlimit="1.414"><path d="M9.7 6.2v2.5c0 .1-.1.1-.1.1h-.5L7.9 7.2v1.5c0 .1 0 .1-.1.1h-.4c-.1 0-.1 0-.1-.1V6.2c0-.1 0-.1.1-.1h.4s.1 0 .1.1l1.2 1.6V6.2c0-.1 0-.1.1-.1h.4c.1-.1.1 0 .1.1zM6.8 6h-.4c-.1 0-.1 0-.1.1v2.5c0 .1 0 .1.1.1h.4c.1 0 .1-.1.1-.1V6.2c0-.1 0-.2-.1-.2zm-1 2.2H4.7v-2c0-.1-.1-.2-.1-.2h-.4c-.1 0-.1 0-.1.1v2.6h1.7c.1 0 .1-.1.1-.1v-.3c0-.1 0-.1-.1-.1zM11.9 6h-1.6c-.1 0-.1 0-.1.1v2.5c0 .1 0 .1.1.1h1.6c.1 0 .1-.1.1-.1v-.3c0-.1-.1-.1-.1-.1h-1.1v-.5h1.1c.1 0 .1 0 .1-.1v-.4c0-.1-.1-.1-.1-.1h-1.1v-.4h1.1c.1 0 .1 0 .1-.1v-.4c0-.1-.1-.2-.1-.2zM16 2.9v10.2c0 1.6-1.3 2.9-2.9 2.9H2.9C1.3 16 0 14.7 0 13.1V2.9C0 1.3 1.3 0 2.9 0h10.2C14.7 0 16 1.3 16 2.9zm-2.2 4.4c0-2.6-2.6-4.7-5.8-4.7S2.1 4.7 2.1 7.3c0 2.3 2.1 4.3 4.9 4.7.7.1.6.4.4 1.3 0 .1-.1.6.5.3s3.4-2 4.6-3.4c.9-.9 1.3-1.9 1.3-2.9z"/></symbol><symbol id="twitter" viewBox="0 0 16 16" fill-rule="evenodd" clip-rule="evenodd" stroke-linejoin="round" stroke-miterlimit="1.414"><path d="M16 3.038a6.62 6.62 0 0 1-1.885.517 3.299 3.299 0 0 0 1.443-1.816c-.634.37-1.337.64-2.085.79a3.282 3.282 0 0 0-5.593 2.99 9.307 9.307 0 0 1-6.766-3.42A3.222 3.222 0 0 0 .67 3.75c0 1.14.58 2.143 1.46 2.732a3.278 3.278 0 0 1-1.487-.41v.04c0 1.59 1.13 2.918 2.633 3.22a3.336 3.336 0 0 1-1.475.056 3.29 3.29 0 0 0 3.07 2.28 6.578 6.578 0 0 1-4.85 1.359 9.332 9.332 0 0 0 5.04 1.474c6.04 0 9.34-5 9.34-9.33 0-.14 0-.28-.01-.42a6.63 6.63 0 0 0 1.64-1.7z" fill-rule="nonzero"/></symbol><symbol id="googleplus" viewBox="0 0 16 16" fill-rule="evenodd" clip-rule="evenodd" stroke-linejoin="round" stroke-miterlimit="1.414"><path d="M5.09 7.273v1.745h2.89c-.116.75-.873 2.197-2.887 2.197-1.737 0-3.155-1.44-3.155-3.215S3.353 4.785 5.09 4.785c.99 0 1.652.422 2.03.786l1.382-1.33c-.887-.83-2.037-1.33-3.41-1.33C2.275 2.91 0 5.19 0 8s2.276 5.09 5.09 5.09c2.94 0 4.888-2.065 4.888-4.974 0-.334-.036-.59-.08-.843H5.09zm10.91 0h-1.455V5.818H13.09v1.455h-1.454v1.454h1.455v1.455h1.46V8.727H16"/></symbol><symbol id="rss" viewBox="0 0 16 16" fill-rule="evenodd" clip-rule="evenodd" stroke-linejoin="round" stroke-miterlimit="1.414"><path d="M12.8 16C12.8 8.978 7.022 3.2 0 3.2V0c8.777 0 16 7.223 16 16h-3.2zM2.194 11.61c1.21 0 2.195.985 2.195 2.196 0 1.21-.99 2.194-2.2 2.194A2.192 2.192 0 0 1 0 13.806c0-1.21.983-2.195 2.194-2.195zM10.606 16h-3.11c0-4.113-3.383-7.497-7.496-7.497v-3.11c5.818 0 10.606 4.79 10.606 10.607z"/></symbol></svg>